<?xml version="1.0" encoding="utf-8"?>
<!-- Generator: Adobe Illustrator 19.2.1, SVG Export Plug-In . SVG Version: 6.00 Build 0)  -->
<svg version="1.1" id="layer" xmlns="http://www.w3.org/2000/svg" xmlns:xlink="http://www.w3.org/1999/xlink" x="0px" y="0px"
	 viewBox="0 0 652 652" style="enable-background:new 0 0 652 652;" xml:space="preserve">
<style type="text/css">
	.st0{fill:#EA1331;}
</style>
<path class="st0" d="M519.1,345.7c0,24.4-17.9,38-43.4,38c-17.9,0-35.9-6.5-50.1-19.6l15.4-19.1c10.6,9.1,21.8,14.9,35.3,14.9
	c10.6,0,17-4.4,17-11.6V348c0-6.8-4-10.3-23.8-15.6c-23.8-6.3-39.1-13.1-39.1-37.5v-0.4c0-22.3,17.2-37,41.3-37
	c17.2,0,31.9,5.6,43.9,15.6L502,293.5c-10.5-7.5-20.8-12.1-30.7-12.1c-10,0-15.2,4.7-15.2,10.7v0.4c0,8.1,5.1,10.7,25.5,16.1
	c24,6.5,37.5,15.4,37.5,36.8V345.7 M594.7,302.3c0-12.1-8.1-18.6-21.1-18.6h-20.1v37.5h20.6c13,0,20.6-8.1,20.6-18.6 M621.1,302.1
	c0,28.4-21.3,43.1-47.8,43.1h-19.7V382h-26V259.4h48.3c28.2,0,45.2,17.4,45.2,42.4V302.1"/>
<path d="M104.6,344.2c0-2.7-1.3-4.1-3.9-4.1h-4.9v13.3h4.9c1.2,0,2.1-0.2,2.8-0.8c0.7-0.5,1.1-1.4,1.1-2.7V344.2z M100.7,334.8
	c3,0,5.3,0.8,7,2.4c1.7,1.6,2.6,3.9,2.6,7v5.8c0,1.4-0.3,2.7-0.8,3.8c-0.5,1.1-1.1,2-2,2.7c-0.8,0.7-1.8,1.3-3,1.6
	c-1.1,0.3-2.4,0.5-3.7,0.5h-5v14.7h-5.7v-38.5H100.7z M135.2,345.8c0-1-0.2-1.8-0.5-2.6c-0.4-0.8-0.9-1.5-1.5-2
	c-0.6-0.6-1.3-1-2.1-1.3c-0.8-0.3-1.7-0.5-2.6-0.5h-0.8c-2,0-3.6,0.6-4.8,1.7c-1.3,1.1-1.9,2.7-1.9,4.7v16.4c0,2.1,0.6,3.8,1.8,4.8
	c1.2,1,2.9,1.5,5,1.5h0.7c2.1,0,3.7-0.5,4.9-1.5c1.2-1.1,1.9-2.7,1.9-4.8V345.8z M128.4,334.2c1.7,0,3.4,0.3,4.9,0.8
	c1.5,0.5,2.8,1.3,3.9,2.3c1.1,1,2,2.2,2.7,3.6c0.7,1.5,1,3.1,1,4.9v16.4c0,1.9-0.3,3.5-1,4.9c-0.6,1.4-1.5,2.7-2.6,3.7
	c-1.1,1-2.4,1.7-3.9,2.3c-1.5,0.5-3.1,0.7-4.9,0.7h-0.7c-1.8,0-3.5-0.2-5-0.7c-1.5-0.5-2.8-1.3-4-2.3c-1.1-1-1.9-2.2-2.6-3.6
	c-0.6-1.5-0.9-3.1-0.9-5v-16.4c0-1.8,0.3-3.4,1-4.8c0.7-1.4,1.5-2.6,2.6-3.6c1.1-1,2.4-1.8,3.9-2.3c1.5-0.6,3.2-0.8,4.9-0.8H128.4z
	 M153,334.8V368h14.1v5.3h-19.6v-38.5H153z M179.4,357.9l-10.8-23.2h6.2l7.5,17l7.6-17h6.2L185,358v15.3h-5.7V357.9z M198,340.1
	v-5.3h24.3v5.3H213v33.2h-5.7v-33.2H198z M232.3,356.3V368h13v5.3h-18.5v-38.5h17.5v5.3h-12v11.2h10.1v5H232.3z M262,339.5
	c-2.1,0-3.6,0.6-4.6,1.7c-1,1.1-1.5,2.6-1.5,4.5v16.7c0,2.2,0.5,3.7,1.6,4.7c1.1,1,2.6,1.5,4.6,1.5c0.9,0,1.6-0.1,2.3-0.2
	c0.7-0.2,1.3-0.4,1.8-0.7c0.5-0.3,1-0.7,1.5-1.1c0.5-0.4,1-0.9,1.5-1.5l3.3,4.2c-1.5,1.6-3.1,2.8-4.8,3.5c-1.6,0.7-3.5,1.1-5.6,1.1
	c-3.7,0-6.7-1-8.7-2.9c-2.1-2-3.1-4.8-3.1-8.5v-16.7c0-1.8,0.3-3.4,0.9-4.8c0.6-1.4,1.4-2.6,2.5-3.6c1-1,2.3-1.8,3.7-2.3
	c1.5-0.5,3-0.8,4.8-0.8c2.5,0,4.6,0.4,6.2,1.3c1.7,0.9,3.1,2.3,4.4,4.2l-3.7,3.8c-0.6-1.1-1.5-2-2.7-2.8
	C265.1,339.9,263.7,339.5,262,339.5 M298.3,334.8h5.6v38.5h-5.6v-16h-13.2v16h-5.5v-38.5h5.5V352h13.2V334.8z M332.2,334.8h5.1v38.5
	h-8.8l-11.7-31.6v31.6h-5.1v-38.5h8.1l12.4,32.2V334.8z M346.8,334.8h5.7v38.5h-5.7V334.8z M372.7,339.5c-2.1,0-3.6,0.6-4.6,1.7
	c-1,1.1-1.5,2.6-1.5,4.5v16.7c0,2.2,0.5,3.7,1.6,4.7c1.1,1,2.6,1.5,4.6,1.5c0.9,0,1.6-0.1,2.3-0.2c0.7-0.2,1.3-0.4,1.8-0.7
	c0.5-0.3,1-0.7,1.5-1.1c0.5-0.4,1-0.9,1.5-1.5l3.3,4.2c-1.5,1.6-3.1,2.8-4.8,3.5c-1.6,0.7-3.5,1.1-5.6,1.1c-3.7,0-6.6-1-8.7-2.9
	c-2.1-2-3.1-4.8-3.1-8.5v-16.7c0-1.8,0.3-3.4,0.9-4.8c0.6-1.4,1.4-2.6,2.5-3.6c1-1,2.3-1.8,3.8-2.3c1.5-0.5,3-0.8,4.7-0.8
	c2.5,0,4.6,0.4,6.2,1.3c1.7,0.9,3.1,2.3,4.4,4.2l-3.7,3.8c-0.6-1.1-1.5-2-2.7-2.8C375.8,339.9,374.4,339.5,372.7,339.5 M45.3,296.2
	c1.3,1,2.6,1.9,3.8,2.8c1.3,0.9,2.4,2,3.4,3.2c1,1.2,1.8,2.7,2.4,4.4c0.6,1.7,0.9,3.8,0.9,6.4c0,2.5-0.4,4.8-1.3,6.7
	c-0.9,1.9-2.1,3.4-3.6,4.7c-1.5,1.3-3.2,2.3-5.3,3c-2,0.6-4.2,0.9-6.6,0.9c-3.9,0-7.5-0.8-10.6-2.5c-3.1-1.6-5.6-4.3-7.4-8l6.6-5.3
	c1.1,2.6,2.5,4.5,4.2,5.8c1.7,1.3,4,1.9,6.8,1.9c2.8,0,4.9-0.5,6.4-1.5c1.5-1.1,2.3-3.1,2.3-5.9c0-1.5-0.5-2.8-1.4-3.9
	c-0.9-1.2-2-2.2-3.3-3.1c-1.3-1-2.7-1.8-4.1-2.5c-1.4-0.8-2.7-1.6-3.8-2.3c-1.1-0.9-2.4-1.8-3.8-2.7c-1.3-1-2.6-2.1-3.7-3.4
	c-1.2-1.4-2.2-2.9-3-4.7c-0.8-1.7-1.1-3.8-1.1-6.2c0-2.5,0.4-4.7,1.2-6.6c0.8-1.9,2-3.4,3.4-4.7c1.5-1.2,3.2-2.2,5.3-2.8
	c2.1-0.6,4.3-0.9,6.8-0.9c2.7,0,5.4,0.7,8.1,2.1c2.8,1.4,5.1,3.3,6.9,5.7l-5.1,6.5c-0.5-0.7-1.2-1.5-2-2.2c-0.8-0.8-1.7-1.5-2.7-2.1
	c-0.9-0.6-1.9-1.1-2.9-1.5c-1-0.4-2.1-0.6-3.1-0.6c-2.4,0-4.3,0.5-5.6,1.6c-1.2,1-1.9,2.8-1.9,5.3c0,1.4,0.5,2.7,1.6,4
	c1.1,1.2,2.4,2.3,3.9,3.3c1.5,1,3,1.9,4.6,2.8C43.2,294.8,44.4,295.5,45.3,296.2 M66.8,270h8.5v57.5h-8.5V270z M120.3,270h7.6v57.5
	h-13.1l-17.5-47.3v47.3h-7.6V270h12.1l18.6,48V270z M155.4,296.5h18.1v24.9c-2.3,2.1-5,3.9-7.8,5.2c-2.8,1.2-6,1.9-9.4,1.9
	c-2.8,0-5.3-0.4-7.6-1.2c-2.2-0.8-4.2-1.9-5.8-3.4c-1.6-1.5-2.8-3.4-3.8-5.5c-0.9-2.1-1.3-4.6-1.3-7.3v-24.5c0-2.7,0.5-5.1,1.5-7.3
	c1-2.1,2.3-3.9,4-5.4c1.7-1.5,3.6-2.7,5.9-3.5c2.2-0.8,4.6-1.2,7.1-1.2c3.7,0,6.9,0.7,9.4,2.2c2.6,1.4,4.8,3.4,6.6,5.9l-5.3,5.9
	c-1.4-1.8-3-3.2-4.9-4.4c-1.8-1.2-3.8-1.8-5.9-1.8c-3,0-5.4,0.9-7.3,2.6c-1.8,1.7-2.8,4-2.8,6.8v24.5c0,3.3,1,5.7,2.8,7.2
	c1.9,1.5,4.3,2.3,7.3,2.3c2.1,0,3.7-0.2,5-0.6c1.3-0.5,2.6-1.2,3.9-2.3v-13.9h-9.8V296.5z M206,305.1l-5.9-25.9l-5.9,25.9H206z
	 M205.3,269.7l15.1,57.9h-8.6l-3.9-15.1h-15.4l-4,15.1h-8.7l15.5-57.9H205.3z M249.4,284.1c0-4.1-2-6.2-5.9-6.2h-7.3v19.8h7.3
	c1.7,0,3.1-0.4,4.2-1.1c1.1-0.8,1.6-2.2,1.6-4.1V284.1z M243.5,270c4.4,0,7.9,1.2,10.4,3.5c2.6,2.4,3.9,5.8,3.9,10.4v8.6
	c0,2.1-0.4,4-1.1,5.7c-0.7,1.6-1.7,2.9-3,4.1c-1.2,1.1-2.7,1.9-4.5,2.4c-1.7,0.5-3.5,0.8-5.5,0.8h-7.4v22h-8.5V270H243.5z
	 M295,286.5c0-1.5-0.3-2.8-0.8-3.9c-0.5-1.2-1.3-2.2-2.2-3c-0.9-0.8-1.9-1.5-3.2-1.9c-1.2-0.5-2.5-0.7-3.9-0.7h-1.1
	c-2.9,0-5.4,0.9-7.3,2.5c-1.9,1.7-2.8,4-2.8,6.9v24.5c0,3.2,0.9,5.6,2.8,7.2c1.9,1.5,4.3,2.3,7.4,2.3h1c3.1,0,5.5-0.8,7.3-2.3
	c1.8-1.6,2.8-4,2.8-7.2V286.5z M284.9,269.2c2.6,0,5,0.4,7.3,1.2c2.3,0.8,4.2,1.9,5.9,3.5c1.7,1.5,3,3.3,4,5.4
	c1,2.1,1.5,4.6,1.5,7.3v24.5c0,2.8-0.5,5.2-1.5,7.4c-0.9,2.1-2.2,4-3.9,5.5c-1.6,1.5-3.6,2.6-5.9,3.4c-2.2,0.7-4.7,1.1-7.3,1.1h-1
	c-2.7,0-5.2-0.4-7.5-1.1c-2.3-0.8-4.3-1.9-5.9-3.4c-1.6-1.5-2.9-3.3-3.8-5.4c-0.9-2.2-1.4-4.7-1.4-7.5v-24.5c0-2.6,0.5-5,1.5-7.2
	c1-2.1,2.3-3.9,3.9-5.4c1.7-1.5,3.6-2.7,5.9-3.5c2.3-0.8,4.7-1.3,7.3-1.3H284.9z M321.8,295.6h9.6c1.8,0,3.3-0.4,4.3-1.2
	c1.1-0.9,1.6-2.3,1.6-4.3v-5.8c0-4.2-2-6.3-6-6.3h-9.5V295.6z M345.9,290.1c0,3.4-0.8,6.1-2.5,8.1c-1.7,2-4,3.5-6.9,4.5l11,24.9
	h-8.7l-10.5-24h-6.4v24h-8.5V270h18.1c4.6,0,8.2,1.1,10.7,3.4c2.5,2.3,3.7,5.9,3.7,10.8V290.1z M363.8,302.1v17.6h19.4v7.8h-27.6
	V270h26.2v7.9h-17.9v16.7h15.1v7.5H363.8z M403.5,232.8h4.1v178.4h-4.1V232.8z"/>
</svg>
